<svg width="25" height="21" viewBox="0 0 25 21" fill="none" xmlns="http://www.w3.org/2000/svg">
<path fill-rule="evenodd" clip-rule="evenodd" d="M7.14286 9.75H1.78571C0.799491 9.75 0 9.07842 0 8.25V3.75C0 2.92158 0.799491 2.25 1.78571 2.25H7.14286C8.12907 2.25 8.92857 2.92158 8.92857 3.75V8.25C8.92857 9.07842 8.12907 9.75 7.14286 9.75ZM14.2857 3.375C13.5461 3.375 12.9464 3.87868 12.9464 4.5C12.9464 5.12132 13.5461 5.625 14.2857 5.625H15.625V16.0665C16.4303 15.4047 17.5325 14.9968 18.748 14.9968C21.2146 14.9968 23.2143 16.6764 23.2143 18.7484C23.2143 18.834 23.2109 18.9189 23.2041 19.003C24.3225 18.6737 25 17.7086 25 16.5C25 13.6099 22.1777 11.0678 18.3036 10.8855V9.449C18.6975 9.64043 19.155 9.75 19.6429 9.75H21.4286C21.9216 9.75 22.3214 9.41421 22.3214 9V6C22.3214 5.58579 21.9216 5.25 21.4286 5.25H19.6429C19.155 5.25 18.6975 5.35958 18.3036 5.551V4.5C18.3036 3.87868 17.7039 3.375 16.9643 3.375H14.2857ZM14.3041 19.125C14.2894 19.0011 14.2819 18.8755 14.2819 18.7484C14.2819 18.066 14.4988 17.4263 14.8778 16.875H14.7321C13.9925 16.875 13.3929 16.3713 13.3929 15.75V15C13.3929 12.7218 11.1942 10.875 8.48214 10.875H4.91071C2.19861 10.875 0 12.7218 0 15V18C0 18.6213 0.599618 19.125 1.33929 19.125H1.80413C1.78943 19.0011 1.7819 18.8755 1.7819 18.7484C1.7819 16.6764 3.78148 14.9968 6.24807 14.9968C8.71468 14.9968 10.7142 16.6764 10.7142 18.7484C10.7142 18.8755 10.7067 19.0011 10.692 19.125H14.3041ZM3.56764 18.7484C3.56764 19.992 4.76773 21 6.24811 21C7.72848 21 8.92857 19.992 8.92857 18.7484C8.92857 17.5049 7.72848 16.4969 6.24811 16.4969C4.76773 16.4969 3.56764 17.5049 3.56764 18.7484ZM16.0677 18.7484C16.0677 19.9918 17.2677 21 18.748 21C20.2286 21 21.4286 19.9918 21.4286 18.7484C21.4286 17.5049 20.2286 16.4969 18.748 16.4969C17.2677 16.4969 16.0677 17.5049 16.0677 18.7484Z" fill="white"/>
</svg>
