<svg width="24" height="24" viewBox="0 0 24 24" fill="none" xmlns="http://www.w3.org/2000/svg">
<path d="M15 3.92001C14.13 4.27001 13.33 4.66001 12.7 5.05001L12.53 5.16C12.24 5.34 11.76 5.34 11.47 5.16L11.22 5.01003C9.43997 3.90003 6.25997 2.84001 4.15997 2.67001C2.96997 2.57001 2 3.47 2 4.66V16.74C2 17.7 2.77999 18.6 3.73999 18.72L4.03003 18.76C6.20003 19.05 9.54997 20.15 11.47 21.2L11.51 21.22C11.78 21.37 12.21 21.37 12.47 21.22C14.39 20.16 17.75 19.05 19.93 18.76L20.26 18.72C21.22 18.6 22 17.7 22 16.74V4.67001C22 3.47001 21.02 2.58002 19.83 2.68002H19.77C19.53 2.70002 19.27 2.73005 19 2.78005M15 3.92001V8.00002L17 6.67001L19 8.00002V2.78005M15 3.92001C16.31 3.40001 17.77 2.98005 19 2.78005M12 5.48999V20.49" stroke="white" stroke-width="1.5" stroke-linecap="round" stroke-linejoin="round"/>
</svg>
