<svg xmlns="http://www.w3.org/2000/svg" version="1.0" width="1280.000000pt" height="1203.000000pt" viewBox="0 0 1280.000000 1203.000000" preserveAspectRatio="xMidYMid meet">
<metadata fill="#ffffff">
Created by potrace 1.15, written by Peter Selinger 2001-2017
</metadata>
<g transform="translate(0.000000,1203.000000) scale(0.100000,-0.100000)" fill="#ffffff" stroke="none">
<path d="M10475 11131 l-1109 -898 -63 -444 -62 -444 -238 -235 c-423 -417 -2104 -2055 -2113 -2058 -8 -3 -1250 1272 -1250 1284 0 5 16 49 35 99 156 408 181 899 68 1350 -157 631 -607 1269 -1148 1630 -223 148 -531 276 -798 330 -319 64 -713 58 -1002 -16 l-80 -20 -283 -282 -283 -283 635 -587 c375 -346 638 -596 641 -610 15 -64 145 -809 145 -829 0 -46 -242 -294 -635 -652 -66 -61 -136 -125 -156 -144 l-37 -34 -408 42 c-225 22 -426 44 -447 47 -35 5 -111 72 -670 591 l-630 584 -278 -278 -277 -279 -13 -90 c-18 -117 -18 -452 0 -570 64 -432 233 -818 509 -1165 99 -125 319 -343 457 -454 630 -505 1284 -684 2010 -551 236 44 453 115 657 215 l107 52 338 -331 c186 -183 339 -336 341 -340 2 -5 -28 -32 -65 -62 -178 -140 -316 -280 -633 -644 -651 -748 -1335 -1279 -2509 -1949 -224 -128 -289 -175 -401 -293 -248 -258 -336 -536 -309 -978 13 -208 33 -289 114 -450 280 -559 1043 -1243 1505 -1349 171 -39 511 -45 686 -11 221 42 424 149 585 307 104 103 149 164 279 383 293 490 649 1016 905 1335 196 244 456 527 690 750 159 152 240 223 490 430 205 169 501 452 583 557 l40 53 639 -627 c351 -345 886 -870 1188 -1168 1610 -1583 1574 -1548 1643 -1589 158 -92 375 -171 552 -202 129 -22 371 -14 483 15 201 53 359 149 532 324 183 185 296 372 352 584 23 84 26 120 27 253 1 213 -31 359 -123 555 -93 199 -8 107 -2078 2244 -1063 1097 -1933 1998 -1933 2001 0 3 224 224 497 490 273 267 806 787 1183 1155 l686 670 440 44 c241 23 454 46 472 50 28 5 143 141 937 1101 l905 1095 -402 398 c-222 218 -496 487 -609 596 l-205 200 -1109 -898z" fill="#ffffff"/>
</g>
</svg>