<svg width="24" height="25" viewBox="0 0 24 25" fill="none" xmlns="http://www.w3.org/2000/svg">
<path d="M5.45 14.36L6.09253 14.7469L6.09421 14.7441L5.45 14.36ZM4.3 16.27L3.65747 15.8831L3.65736 15.8833L4.3 16.27ZM5.38 19.2L5.13955 19.9104L5.14233 19.9114L5.38 19.2ZM18.65 19.2L18.4146 18.4879L18.4123 18.4887L18.65 19.2ZM19.73 16.27L20.3731 15.8841L20.3725 15.8831L19.73 16.27ZM18.58 14.36L17.9302 14.7349L17.9375 14.7469L18.58 14.36ZM13.87 3.7L13.6609 4.42026C13.9353 4.49994 14.2312 4.41673 14.4239 4.20568C14.6166 3.99463 14.6726 3.69242 14.5683 3.42635L13.87 3.7ZM12.91 3.5L12.817 4.24422L12.8197 4.24455L12.91 3.5ZM10.17 3.7L9.4717 3.42635C9.36741 3.69246 9.42345 3.99472 9.6162 4.20577C9.80894 4.41683 10.1049 4.49997 10.3794 4.42019L10.17 3.7ZM12.02 2.66C8.29578 2.66 5.27 5.68579 5.27 9.41H6.77C6.77 6.51422 9.12421 4.16 12.02 4.16V2.66ZM5.27 9.41V12.3H6.77V9.41H5.27ZM5.27 12.3C5.27 12.5146 5.22142 12.8287 5.12857 13.1631C5.03579 13.4974 4.91549 13.7919 4.80579 13.976L6.09421 14.7441C6.2945 14.4081 6.4592 13.9776 6.57392 13.5644C6.68857 13.1513 6.77 12.6954 6.77 12.3H5.27ZM4.80747 13.9731L3.65747 15.8831L4.94252 16.6569L6.09252 14.7469L4.80747 13.9731ZM3.65736 15.8833C3.19632 16.6496 3.10012 17.5092 3.38291 18.2729C3.66538 19.0358 4.29714 19.6253 5.13955 19.9104L5.62044 18.4896C5.16285 18.3347 4.89961 18.0492 4.78958 17.7521C4.67987 17.4558 4.69367 17.0704 4.94264 16.6567L3.65736 15.8833ZM5.14233 19.9114C9.60658 21.4029 14.4234 21.4029 18.8877 19.9114L18.4123 18.4887C14.2566 19.8771 9.77341 19.8771 5.61766 18.4887L5.14233 19.9114ZM18.8854 19.9121C20.5545 19.3603 21.2789 17.3937 20.3731 15.8841L19.0869 16.6559C19.5011 17.3463 19.1655 18.2397 18.4146 18.4879L18.8854 19.9121ZM20.3725 15.8831L19.2225 13.9731L17.9375 14.7469L19.0875 16.6569L20.3725 15.8831ZM19.2296 13.9852C19.1217 13.7982 19.0027 13.5006 18.9108 13.1654C18.8186 12.8294 18.77 12.5149 18.77 12.3H17.27C17.27 12.6951 17.3514 13.1507 17.4642 13.5621C17.5773 13.9744 17.7383 14.4018 17.9304 14.7348L19.2296 13.9852ZM18.77 12.3V9.41H17.27V12.3H18.77ZM18.77 9.41C18.77 5.69579 15.7342 2.66 12.02 2.66V4.16C14.9058 4.16 17.27 6.52422 17.27 9.41H18.77ZM14.0791 2.97974C13.7365 2.88028 13.3765 2.80106 13.0002 2.75545L12.8197 4.24455C13.1035 4.27895 13.3835 4.33972 13.6609 4.42026L14.0791 2.97974ZM13.003 2.75579C11.9474 2.62385 10.9242 2.69971 9.96064 2.97982L10.3794 4.42019C11.1358 4.20029 11.9526 4.13616 12.817 4.24421L13.003 2.75579ZM10.8683 3.97366C11.0488 3.51294 11.4971 3.19 12.02 3.19V1.69C10.8629 1.69 9.87115 2.40707 9.4717 3.42635L10.8683 3.97366ZM12.02 3.19C12.5429 3.19 12.9912 3.51294 13.1717 3.97366L14.5683 3.42635C14.1688 2.40707 13.1771 1.69 12.02 1.69V3.19ZM14.27 19.56C14.27 20.7958 13.2558 21.81 12.02 21.81V23.31C14.0842 23.31 15.77 21.6242 15.77 19.56H14.27ZM12.02 21.81C11.4075 21.81 10.8359 21.5552 10.4303 21.1497L9.36967 22.2103C10.0441 22.8848 10.9925 23.31 12.02 23.31V21.81ZM10.4303 21.1497C10.0248 20.7441 9.77 20.1725 9.77 19.56H8.27C8.27 20.5875 8.69519 21.5359 9.36967 22.2103L10.4303 21.1497Z" fill="white"/>
</svg>
