<svg xmlns="http://www.w3.org/2000/svg" xmlns:xlink="http://www.w3.org/1999/xlink" version="1.1" width="256" height="256" viewBox="0 0 256 256" xml:space="preserve">
<g style="stroke: none; stroke-width: 0; stroke-dasharray: none; stroke-linecap: butt; stroke-linejoin: miter; stroke-miterlimit: 10; fill: none; fill-rule: nonzero; opacity: 1;" transform="translate(1.4065934065934016 1.4065934065934016) scale(2.81 2.81)">
	<path d="M 80.288 27.149 c 2.109 0 3.819 -1.71 3.819 -3.819 c 0 -2.109 -1.71 -3.819 -3.819 -3.819 h -4.123 V 8.638 h 4.123 c 2.109 0 3.819 -1.71 3.819 -3.819 C 84.107 2.71 82.397 1 80.288 1 H 45 c -6.87 29.333 -6.87 58.667 0 88 h 35.288 c 2.109 0 3.819 -1.71 3.819 -3.819 s -1.71 -3.819 -3.819 -3.819 h -4.123 V 70.489 h 4.123 c 2.109 0 3.819 -1.71 3.819 -3.819 s -1.71 -3.819 -3.819 -3.819 h -4.123 V 27.149 H 80.288 z" style="stroke: none; stroke-width: 1; stroke-dasharray: none; stroke-linecap: butt; stroke-linejoin: miter; stroke-miterlimit: 10; fill: rgb(255,255,255); fill-rule: nonzero; opacity: 1;" transform=" matrix(1 0 0 1 0 0) " stroke-linecap="round"/>
	<path d="M 9.712 27.149 c -2.109 0 -3.819 -1.71 -3.819 -3.819 c 0 -2.109 1.71 -3.819 3.819 -3.819 h 4.123 V 8.638 H 9.712 c -2.109 0 -3.819 -1.71 -3.819 -3.819 C 5.893 2.71 7.603 1 9.712 1 H 45 v 88 H 9.712 c -2.109 0 -3.819 -1.71 -3.819 -3.819 s 1.71 -3.819 3.819 -3.819 h 4.123 V 70.489 H 9.712 c -2.109 0 -3.819 -1.71 -3.819 -3.819 s 1.71 -3.819 3.819 -3.819 h 4.123 V 27.149 H 9.712 z" style="stroke: none; stroke-width: 1; stroke-dasharray: none; stroke-linecap: butt; stroke-linejoin: miter; stroke-miterlimit: 10; fill: rgb(255,255,255); fill-rule: nonzero; opacity: 1;" transform=" matrix(1 0 0 1 0 0) " stroke-linecap="round"/>
	<path d="M 51.16 43.182 c -0.015 -0.025 -0.033 -0.048 -0.053 -0.07 c -2.636 -2.878 -4.485 -6.073 -5.653 -9.766 c -0.062 -0.198 -0.246 -0.332 -0.453 -0.332 c -1.62 9.339 -2.601 18.146 0 23.971 c 4.566 0 8.281 -3.715 8.281 -8.281 C 53.281 46.666 52.529 44.708 51.16 43.182 z" style="stroke: none; stroke-width: 1; stroke-dasharray: none; stroke-linecap: butt; stroke-linejoin: miter; stroke-miterlimit: 10; fill: rgb(255,255,255); fill-rule: nonzero; opacity: 1;" transform=" matrix(1 0 0 1 0 0) " stroke-linecap="round"/>
	<path d="M 38.84 43.182 c 0.015 -0.025 0.033 -0.048 0.053 -0.07 c 2.636 -2.878 4.485 -6.073 5.653 -9.766 c 0.062 -0.198 0.246 -0.332 0.453 -0.332 v 23.971 c -4.566 0 -8.281 -3.715 -8.281 -8.281 C 36.719 46.666 37.471 44.708 38.84 43.182 z" style="stroke: none; stroke-width: 1; stroke-dasharray: none; stroke-linecap: butt; stroke-linejoin: miter; stroke-miterlimit: 10; fill: rgb(255,255,255); fill-rule: nonzero; opacity: 1;" transform=" matrix(1 0 0 1 0 0) " stroke-linecap="round"/>
	<path d="M 45 57.985 c -5.118 0 -9.281 -4.163 -9.281 -9.281 c 0 -2.241 0.81 -4.405 2.28 -6.093 l 0.125 -0.137 c 2.568 -2.807 4.347 -5.879 5.47 -9.43 c 0.195 -0.616 0.761 -1.03 1.407 -1.03 s 1.212 0.414 1.407 1.03 c 1.123 3.553 2.902 6.625 5.437 9.394 l 0.097 0.118 c 1.51 1.703 2.341 3.885 2.341 6.148 C 54.281 53.822 50.118 57.985 45 57.985 z M 45 35.093 c -1.217 3.231 -2.982 6.088 -5.37 8.695 l -0.126 0.14 c -1.15 1.32 -1.785 3.018 -1.785 4.776 c 0 4.015 3.267 7.281 7.281 7.281 s 7.281 -3.267 7.281 -7.281 c 0 -1.788 -0.662 -3.512 -1.865 -4.854 l -0.077 -0.095 C 47.966 41.154 46.211 38.31 45 35.093 z" style="stroke: none; stroke-width: 1; stroke-dasharray: none; stroke-linecap: butt; stroke-linejoin: miter; stroke-miterlimit: 10; fill: rgb(0,0,0); fill-rule: nonzero; opacity: 1;" transform=" matrix(1 0 0 1 0 0) " stroke-linecap="round"/>
	<rect x="12.84" y="70.49" rx="0" ry="0" width="2" height="10.87" style="stroke: none; stroke-width: 1; stroke-dasharray: none; stroke-linecap: butt; stroke-linejoin: miter; stroke-miterlimit: 10; fill: rgb(0,0,0); fill-rule: nonzero; opacity: 1;" transform=" matrix(1 0 0 1 0 0) "/>
	<rect x="75.17" y="70.49" rx="0" ry="0" width="2" height="10.87" style="stroke: none; stroke-width: 1; stroke-dasharray: none; stroke-linecap: butt; stroke-linejoin: miter; stroke-miterlimit: 10; fill: rgb(0,0,0); fill-rule: nonzero; opacity: 1;" transform=" matrix(1 0 0 1 0 0) "/>
	<rect x="75.17" y="27.15" rx="0" ry="0" width="2" height="35.7" style="stroke: none; stroke-width: 1; stroke-dasharray: none; stroke-linecap: butt; stroke-linejoin: miter; stroke-miterlimit: 10; fill: rgb(0,0,0); fill-rule: nonzero; opacity: 1;" transform=" matrix(1 0 0 1 0 0) "/>
	<rect x="75.17" y="8.64" rx="0" ry="0" width="2" height="10.87" style="stroke: none; stroke-width: 1; stroke-dasharray: none; stroke-linecap: butt; stroke-linejoin: miter; stroke-miterlimit: 10; fill: rgb(0,0,0); fill-rule: nonzero; opacity: 1;" transform=" matrix(1 0 0 1 0 0) "/>
	<rect x="12.84" y="8.64" rx="0" ry="0" width="2" height="10.87" style="stroke: none; stroke-width: 1; stroke-dasharray: none; stroke-linecap: butt; stroke-linejoin: miter; stroke-miterlimit: 10; fill: rgb(0,0,0); fill-rule: nonzero; opacity: 1;" transform=" matrix(1 0 0 1 0 0) "/>
	<rect x="12.84" y="27.15" rx="0" ry="0" width="2" height="35.7" style="stroke: none; stroke-width: 1; stroke-dasharray: none; stroke-linecap: butt; stroke-linejoin: miter; stroke-miterlimit: 10; fill: rgb(0,0,0); fill-rule: nonzero; opacity: 1;" transform=" matrix(1 0 0 1 0 0) "/>
	<path d="M 80.288 9.638 H 9.712 c -2.657 0 -4.819 -2.162 -4.819 -4.819 S 7.055 0 9.712 0 h 70.576 c 2.657 0 4.819 2.162 4.819 4.819 S 82.945 9.638 80.288 9.638 z M 9.712 2 C 8.158 2 6.893 3.265 6.893 4.819 c 0 1.555 1.265 2.819 2.819 2.819 h 70.576 c 1.555 0 2.819 -1.265 2.819 -2.819 C 83.107 3.265 81.843 2 80.288 2 H 9.712 z" style="stroke: none; stroke-width: 1; stroke-dasharray: none; stroke-linecap: butt; stroke-linejoin: miter; stroke-miterlimit: 10; fill: rgb(0,0,0); fill-rule: nonzero; opacity: 1;" transform=" matrix(1 0 0 1 0 0) " stroke-linecap="round"/>
	<path d="M 80.288 90 H 9.712 c -2.657 0 -4.819 -2.162 -4.819 -4.819 s 2.162 -4.818 4.819 -4.818 h 70.576 c 2.657 0 4.819 2.161 4.819 4.818 S 82.945 90 80.288 90 z M 9.712 82.362 c -1.554 0 -2.819 1.265 -2.819 2.818 C 6.893 86.735 8.158 88 9.712 88 h 70.576 c 1.555 0 2.819 -1.265 2.819 -2.819 c 0 -1.554 -1.265 -2.818 -2.819 -2.818 H 9.712 z" style="stroke: none; stroke-width: 1; stroke-dasharray: none; stroke-linecap: butt; stroke-linejoin: miter; stroke-miterlimit: 10; fill: rgb(0,0,0); fill-rule: nonzero; opacity: 1;" transform=" matrix(1 0 0 1 0 0) " stroke-linecap="round"/>
	<path d="M 80.288 28.149 H 9.712 c -2.657 0 -4.819 -2.162 -4.819 -4.819 s 2.162 -4.819 4.819 -4.819 h 70.576 c 2.657 0 4.819 2.162 4.819 4.819 S 82.945 28.149 80.288 28.149 z M 9.712 20.511 c -1.554 0 -2.819 1.265 -2.819 2.819 s 1.265 2.819 2.819 2.819 h 70.576 c 1.555 0 2.819 -1.265 2.819 -2.819 s -1.265 -2.819 -2.819 -2.819 H 9.712 z" style="stroke: none; stroke-width: 1; stroke-dasharray: none; stroke-linecap: butt; stroke-linejoin: miter; stroke-miterlimit: 10; fill: rgb(0,0,0); fill-rule: nonzero; opacity: 1;" transform=" matrix(1 0 0 1 0 0) " stroke-linecap="round"/>
	<path d="M 80.288 71.489 H 9.712 c -2.657 0 -4.819 -2.162 -4.819 -4.819 s 2.162 -4.819 4.819 -4.819 h 70.576 c 2.657 0 4.819 2.162 4.819 4.819 S 82.945 71.489 80.288 71.489 z M 9.712 63.851 c -1.554 0 -2.819 1.265 -2.819 2.819 s 1.265 2.819 2.819 2.819 h 70.576 c 1.555 0 2.819 -1.265 2.819 -2.819 s -1.265 -2.819 -2.819 -2.819 H 9.712 z" style="stroke: none; stroke-width: 1; stroke-dasharray: none; stroke-linecap: butt; stroke-linejoin: miter; stroke-miterlimit: 10; fill: rgb(0,0,0); fill-rule: nonzero; opacity: 1;" transform=" matrix(1 0 0 1 0 0) " stroke-linecap="round"/>
</g>
</svg>